solid 龙门机架 - 升降调高体杆子-1
   facet normal -3.228728e-001 0.000000e+000 -9.464424e-001
      outer loop
         vertex 1.453902e+003 1.447247e+003 4.214208e+003
         vertex 1.451404e+003 4.472468e+002 4.214980e+003
         vertex 1.451404e+003 1.447247e+003 4.214980e+003
      endloop
   endfacet
   facet normal -4.304461e-001 0.000000e+000 -9.026163e-001
      outer loop
         vertex 1.451404e+003 1.447247e+003 4.214980e+003
         vertex 1.451404e+003 4.472468e+002 4.214980e+003
         vertex 1.449078e+003 4.472468e+002 4.216174e+003
      endloop
   endfacet
   facet normal -4.823157e-001 0.000000e+000 -8.759975e-001
      outer loop
         vertex 1.451404e+003 1.447247e+003 4.214980e+003
         vertex 1.449078e+003 4.472468e+002 4.216174e+003
         vertex 1.449078e+003 1.447247e+003 4.216174e+003
      endloop
   endfacet
   facet normal -5.806444e-001 0.000000e+000 -8.141573e-001
      outer loop
         vertex 1.449078e+003 1.447247e+003 4.216174e+003
         vertex 1.449078e+003 4.472468e+002 4.216174e+003
         vertex 1.446994e+003 4.472468e+002 4.217753e+003
      endloop
   endfacet
   facet normal -6.271036e-001 0.000000e+000 -7.789358e-001
      outer loop
         vertex 1.449078e+003 1.447247e+003 4.216174e+003
         vertex 1.446994e+003 4.472468e+002 4.217753e+003
         vertex 1.446994e+003 1.447247e+003 4.217753e+003
      endloop
   endfacet
   facet normal -7.132000e-001 0.000000e+000 -7.009606e-001
      outer loop
         vertex 1.446994e+003 1.447247e+003 4.217753e+003
         vertex 1.446994e+003 4.472468e+002 4.217753e+003
         vertex 1.445217e+003 4.472468e+002 4.219671e+003
      endloop
   endfacet
   facet normal -7.528373e-001 0.000000e+000 -6.582067e-001
      outer loop
         vertex 1.446994e+003 1.447247e+003 4.217753e+003
         vertex 1.445217e+003 4.472468e+002 4.219671e+003
         vertex 1.445217e+003 1.447247e+003 4.219671e+003
      endloop
   endfacet
   facet normal -8.240855e-001 0.000000e+000 -5.664655e-001
      outer loop
         vertex 1.445217e+003 1.447247e+003 4.219671e+003
         vertex 1.445217e+003 4.472468e+002 4.219671e+003
         vertex 1.443799e+003 4.472468e+002 4.221868e+003
      endloop
   endfacet
   facet normal -8.556964e-001 0.000000e+000 -5.174782e-001
      outer loop
         vertex 1.445217e+003 1.447247e+003 4.219671e+003
         vertex 1.443799e+003 4.472468e+002 4.221868e+003
         vertex 1.443799e+003 1.447247e+003 4.221868e+003
      endloop
   endfacet
   facet normal -9.099314e-001 0.000000e+000 -4.147587e-001
      outer loop
         vertex 1.443799e+003 1.447247e+003 4.221868e+003
         vertex 1.443799e+003 4.472468e+002 4.221868e+003
         vertex 1.442784e+003 4.472468e+002 4.224278e+003
      endloop
   endfacet
   facet normal -9.325556e-001 0.000000e+000 -3.610265e-001
      outer loop
         vertex 1.443799e+003 1.447247e+003 4.221868e+003
         vertex 1.442784e+003 4.472468e+002 4.224278e+003
         vertex 1.442784e+003 1.447247e+003 4.224278e+003
      endloop
   endfacet
   facet normal -9.681296e-001 0.000000e+000 -2.504497e-001
      outer loop
         vertex 1.442784e+003 1.447247e+003 4.224278e+003
         vertex 1.442784e+003 4.472468e+002 4.224278e+003
         vertex 1.442203e+003 4.472468e+002 4.226827e+003
      endloop
   endfacet
   facet normal -9.810795e-001 0.000000e+000 -1.936051e-001
      outer loop
         vertex 1.442784e+003 1.447247e+003 4.224278e+003
         vertex 1.442203e+003 4.472468e+002 4.226827e+003
         vertex 1.442203e+003 1.447247e+003 4.226827e+003
      endloop
   endfacet
   facet normal -9.969117e-001 0.000000e+000 -7.853084e-002
      outer loop
         vertex 1.442203e+003 1.447247e+003 4.226827e+003
         vertex 1.442203e+003 4.472468e+002 4.226827e+003
         vertex 1.442074e+003 4.472468e+002 4.229439e+003
      endloop
   endfacet
   facet normal -9.997939e-001 0.000000e+000 -2.030118e-002
      outer loop
         vertex 1.442203e+003 1.447247e+003 4.226827e+003
         vertex 1.442074e+003 4.472468e+002 4.229439e+003
         vertex 1.442074e+003 1.447247e+003 4.229439e+003
      endloop
   endfacet
   facet normal -9.954031e-001 0.000000e+000 9.577412e-002
      outer loop
         vertex 1.442074e+003 1.447247e+003 4.229439e+003
         vertex 1.442074e+003 4.472468e+002 4.229439e+003
         vertex 1.442400e+003 4.472468e+002 4.232033e+003
      endloop
   endfacet
   facet normal -9.881300e-001 0.000000e+000 1.536197e-001
      outer loop
         vertex 1.442074e+003 1.447247e+003 4.229439e+003
         vertex 1.442400e+003 4.472468e+002 4.232033e+003
         vertex 1.442400e+003 1.447247e+003 4.232033e+003
      endloop
   endfacet
   facet normal -9.636497e-001 0.000000e+000 2.671690e-001
      outer loop
         vertex 1.442400e+003 1.447247e+003 4.232033e+003
         vertex 1.442400e+003 4.472468e+002 4.232033e+003
         vertex 1.443172e+003 4.472468e+002 4.234531e+003
      endloop
   endfacet
   facet normal -9.464424e-001 0.000000e+000 3.228728e-001
      outer loop
         vertex 1.442400e+003 1.447247e+003 4.232033e+003
         vertex 1.443172e+003 4.472468e+002 4.234531e+003
         vertex 1.443172e+003 1.447247e+003 4.234531e+003
      endloop
   endfacet
   facet normal -9.026163e-001 0.000000e+000 4.304461e-001
      outer loop
         vertex 1.443172e+003 1.447247e+003 4.234531e+003
         vertex 1.443172e+003 4.472468e+002 4.234531e+003
         vertex 1.444366e+003 4.472468e+002 4.236857e+003
      endloop
   endfacet
   facet normal -8.759975e-001 0.000000e+000 4.823157e-001
      outer loop
         vertex 1.443172e+003 1.447247e+003 4.234531e+003
         vertex 1.444366e+003 4.472468e+002 4.236857e+003
         vertex 1.444366e+003 1.447247e+003 4.236857e+003
      endloop
   endfacet
   facet normal -8.141573e-001 0.000000e+000 5.806444e-001
      outer loop
         vertex 1.444366e+003 1.447247e+003 4.236857e+003
         vertex 1.444366e+003 4.472468e+002 4.236857e+003
         vertex 1.445946e+003 4.472468e+002 4.238941e+003
      endloop
   endfacet
   facet normal -7.789358e-001 0.000000e+000 6.271036e-001
      outer loop
         vertex 1.444366e+003 1.447247e+003 4.236857e+003
         vertex 1.445946e+003 4.472468e+002 4.238941e+003
         vertex 1.445946e+003 1.447247e+003 4.238941e+003
      endloop
   endfacet
   facet normal -7.009606e-001 0.000000e+000 7.132000e-001
      outer loop
         vertex 1.445946e+003 1.447247e+003 4.238941e+003
         vertex 1.445946e+003 4.472468e+002 4.238941e+003
         vertex 1.447863e+003 4.472468e+002 4.240718e+003
      endloop
   endfacet
   facet normal -6.582067e-001 0.000000e+000 7.528373e-001
      outer loop
         vertex 1.445946e+003 1.447247e+003 4.238941e+003
         vertex 1.447863e+003 4.472468e+002 4.240718e+003
         vertex 1.447863e+003 1.447247e+003 4.240718e+003
      endloop
   endfacet
   facet normal -5.664655e-001 0.000000e+000 8.240855e-001
      outer loop
         vertex 1.447863e+003 1.447247e+003 4.240718e+003
         vertex 1.447863e+003 4.472468e+002 4.240718e+003
         vertex 1.450060e+003 4.472468e+002 4.242136e+003
      endloop
   endfacet
   facet normal -5.174782e-001 0.000000e+000 8.556964e-001
      outer loop
         vertex 1.447863e+003 1.447247e+003 4.240718e+003
         vertex 1.450060e+003 4.472468e+002 4.242136e+003
         vertex 1.450060e+003 1.447247e+003 4.242136e+003
      endloop
   endfacet
   facet normal -4.147587e-001 0.000000e+000 9.099314e-001
      outer loop
         vertex 1.450060e+003 1.447247e+003 4.242136e+003
         vertex 1.450060e+003 4.472468e+002 4.242136e+003
         vertex 1.452470e+003 4.472468e+002 4.243151e+003
      endloop
   endfacet
   facet normal -3.610265e-001 0.000000e+000 9.325556e-001
      outer loop
         vertex 1.450060e+003 1.447247e+003 4.242136e+003
         vertex 1.452470e+003 4.472468e+002 4.243151e+003
         vertex 1.452470e+003 1.447247e+003 4.243151e+003
      endloop
   endfacet
   facet normal -2.504497e-001 0.000000e+000 9.681296e-001
      outer loop
         vertex 1.452470e+003 1.447247e+003 4.243151e+003
         vertex 1.452470e+003 4.472468e+002 4.243151e+003
         vertex 1.455019e+003 4.472468e+002 4.243731e+003
      endloop
   endfacet
   facet normal -1.936051e-001 0.000000e+000 9.810795e-001
      outer loop
         vertex 1.452470e+003 1.447247e+003 4.243151e+003
         vertex 1.455019e+003 4.472468e+002 4.243731e+003
         vertex 1.455019e+003 1.447247e+003 4.243731e+003
      endloop
   endfacet
   facet normal -7.853084e-002 0.000000e+000 9.969117e-001
      outer loop
         vertex 1.455019e+003 1.447247e+003 4.243731e+003
         vertex 1.455019e+003 4.472468e+002 4.243731e+003
         vertex 1.457630e+003 4.472468e+002 4.243861e+003
      endloop
   endfacet
   facet normal -2.030118e-002 0.000000e+000 9.997939e-001
      outer loop
         vertex 1.455019e+003 1.447247e+003 4.243731e+003
         vertex 1.457630e+003 4.472468e+002 4.243861e+003
         vertex 1.457630e+003 1.447247e+003 4.243861e+003
      endloop
   endfacet
   facet normal 9.577412e-002 0.000000e+000 9.954031e-001
      outer loop
         vertex 1.457630e+003 1.447247e+003 4.243861e+003
         vertex 1.457630e+003 4.472468e+002 4.243861e+003
         vertex 1.460225e+003 4.472468e+002 4.243535e+003
      endloop
   endfacet
   facet normal 1.536197e-001 0.000000e+000 9.881300e-001
      outer loop
         vertex 1.457630e+003 1.447247e+003 4.243861e+003
         vertex 1.460225e+003 4.472468e+002 4.243535e+003
         vertex 1.460225e+003 1.447247e+003 4.243535e+003
      endloop
   endfacet
   facet normal 2.671690e-001 0.000000e+000 9.636497e-001
      outer loop
         vertex 1.460225e+003 1.447247e+003 4.243535e+003
         vertex 1.460225e+003 4.472468e+002 4.243535e+003
         vertex 1.462723e+003 4.472468e+002 4.242763e+003
      endloop
   endfacet
   facet normal 3.228728e-001 0.000000e+000 9.464424e-001
      outer loop
         vertex 1.460225e+003 1.447247e+003 4.243535e+003
         vertex 1.462723e+003 4.472468e+002 4.242763e+003
         vertex 1.462723e+003 1.447247e+003 4.242763e+003
      endloop
   endfacet
   facet normal 4.304461e-001 0.000000e+000 9.026163e-001
      outer loop
         vertex 1.462723e+003 1.447247e+003 4.242763e+003
         vertex 1.462723e+003 4.472468e+002 4.242763e+003
         vertex 1.465049e+003 4.472468e+002 4.241569e+003
      endloop
   endfacet
   facet normal 4.823157e-001 0.000000e+000 8.759975e-001
      outer loop
         vertex 1.462723e+003 1.447247e+003 4.242763e+003
         vertex 1.465049e+003 4.472468e+002 4.241569e+003
         vertex 1.465049e+003 1.447247e+003 4.241569e+003
      endloop
   endfacet
   facet normal 5.806444e-001 0.000000e+000 8.141573e-001
      outer loop
         vertex 1.465049e+003 1.447247e+003 4.241569e+003
         vertex 1.465049e+003 4.472468e+002 4.241569e+003
         vertex 1.467133e+003 4.472468e+002 4.239990e+003
      endloop
   endfacet
   facet normal 6.271036e-001 0.000000e+000 7.789358e-001
      outer loop
         vertex 1.465049e+003 1.447247e+003 4.241569e+003
         vertex 1.467133e+003 4.472468e+002 4.239990e+003
         vertex 1.467133e+003 1.447247e+003 4.239990e+003
      endloop
   endfacet
   facet normal 7.132000e-001 0.000000e+000 7.009606e-001
      outer loop
         vertex 1.467133e+003 1.447247e+003 4.239990e+003
         vertex 1.467133e+003 4.472468e+002 4.239990e+003
         vertex 1.468910e+003 4.472468e+002 4.238072e+003
      endloop
   endfacet
   facet normal 7.528373e-001 0.000000e+000 6.582067e-001
      outer loop
         vertex 1.467133e+003 1.447247e+003 4.239990e+003
         vertex 1.468910e+003 4.472468e+002 4.238072e+003
         vertex 1.468910e+003 1.447247e+003 4.238072e+003
      endloop
   endfacet
   facet normal 8.240855e-001 0.000000e+000 5.664655e-001
      outer loop
         vertex 1.468910e+003 1.447247e+003 4.238072e+003
         vertex 1.468910e+003 4.472468e+002 4.238072e+003
         vertex 1.470328e+003 4.472468e+002 4.235875e+003
      endloop
   endfacet
   facet normal 8.556964e-001 0.000000e+000 5.174782e-001
      outer loop
         vertex 1.468910e+003 1.447247e+003 4.238072e+003
         vertex 1.470328e+003 4.472468e+002 4.235875e+003
         vertex 1.470328e+003 1.447247e+003 4.235875e+003
      endloop
   endfacet
   facet normal 9.099314e-001 0.000000e+000 4.147587e-001
      outer loop
         vertex 1.470328e+003 1.447247e+003 4.235875e+003
         vertex 1.470328e+003 4.472468e+002 4.235875e+003
         vertex 1.471343e+003 4.472468e+002 4.233465e+003
      endloop
   endfacet
   facet normal 9.325556e-001 0.000000e+000 3.610265e-001
      outer loop
         vertex 1.470328e+003 1.447247e+003 4.235875e+003
         vertex 1.471343e+003 4.472468e+002 4.233465e+003
         vertex 1.471343e+003 1.447247e+003 4.233465e+003
      endloop
   endfacet
   facet normal 9.681296e-001 0.000000e+000 2.504497e-001
      outer loop
         vertex 1.471343e+003 1.447247e+003 4.233465e+003
         vertex 1.471343e+003 4.472468e+002 4.233465e+003
         vertex 1.471923e+003 4.472468e+002 4.230916e+003
      endloop
   endfacet
   facet normal 9.810795e-001 0.000000e+000 1.936051e-001
      outer loop
         vertex 1.471343e+003 1.447247e+003 4.233465e+003
         vertex 1.471923e+003 4.472468e+002 4.230916e+003
         vertex 1.471923e+003 1.447247e+003 4.230916e+003
      endloop
   endfacet
   facet normal 9.969117e-001 0.000000e+000 7.853084e-002
      outer loop
         vertex 1.471923e+003 1.447247e+003 4.230916e+003
         vertex 1.471923e+003 4.472468e+002 4.230916e+003
         vertex 1.472053e+003 4.472468e+002 4.228304e+003
      endloop
   endfacet
   facet normal 9.997939e-001 0.000000e+000 2.030118e-002
      outer loop
         vertex 1.471923e+003 1.447247e+003 4.230916e+003
         vertex 1.472053e+003 4.472468e+002 4.228304e+003
         vertex 1.472053e+003 1.447247e+003 4.228304e+003
      endloop
   endfacet
   facet normal 9.954031e-001 0.000000e+000 -9.577412e-002
      outer loop
         vertex 1.472053e+003 1.447247e+003 4.228304e+003
         vertex 1.472053e+003 4.472468e+002 4.228304e+003
         vertex 1.471727e+003 4.472468e+002 4.225710e+003
      endloop
   endfacet
   facet normal 9.881300e-001 0.000000e+000 -1.536197e-001
      outer loop
         vertex 1.472053e+003 1.447247e+003 4.228304e+003
         vertex 1.471727e+003 4.472468e+002 4.225710e+003
         vertex 1.471727e+003 1.447247e+003 4.225710e+003
      endloop
   endfacet
   facet normal 9.636497e-001 0.000000e+000 -2.671690e-001
      outer loop
         vertex 1.471727e+003 1.447247e+003 4.225710e+003
         vertex 1.471727e+003 4.472468e+002 4.225710e+003
         vertex 1.470955e+003 4.472468e+002 4.223212e+003
      endloop
   endfacet
   facet normal 9.464424e-001 0.000000e+000 -3.228728e-001
      outer loop
         vertex 1.471727e+003 1.447247e+003 4.225710e+003
         vertex 1.470955e+003 4.472468e+002 4.223212e+003
         vertex 1.470955e+003 1.447247e+003 4.223212e+003
      endloop
   endfacet
   facet normal 9.026163e-001 0.000000e+000 -4.304461e-001
      outer loop
         vertex 1.470955e+003 1.447247e+003 4.223212e+003
         vertex 1.470955e+003 4.472468e+002 4.223212e+003
         vertex 1.469761e+003 4.472468e+002 4.220886e+003
      endloop
   endfacet
   facet normal 8.759975e-001 0.000000e+000 -4.823157e-001
      outer loop
         vertex 1.470955e+003 1.447247e+003 4.223212e+003
         vertex 1.469761e+003 4.472468e+002 4.220886e+003
         vertex 1.469761e+003 1.447247e+003 4.220886e+003
      endloop
   endfacet
   facet normal 8.141573e-001 0.000000e+000 -5.806444e-001
      outer loop
         vertex 1.469761e+003 1.447247e+003 4.220886e+003
         vertex 1.469761e+003 4.472468e+002 4.220886e+003
         vertex 1.468182e+003 4.472468e+002 4.218802e+003
      endloop
   endfacet
   facet normal 7.789358e-001 0.000000e+000 -6.271036e-001
      outer loop
         vertex 1.469761e+003 1.447247e+003 4.220886e+003
         vertex 1.468182e+003 4.472468e+002 4.218802e+003
         vertex 1.468182e+003 1.447247e+003 4.218802e+003
      endloop
   endfacet
   facet normal 7.009606e-001 0.000000e+000 -7.132000e-001
      outer loop
         vertex 1.468182e+003 1.447247e+003 4.218802e+003
         vertex 1.468182e+003 4.472468e+002 4.218802e+003
         vertex 1.466264e+003 4.472468e+002 4.217025e+003
      endloop
   endfacet
   facet normal 6.582067e-001 0.000000e+000 -7.528373e-001
      outer loop
         vertex 1.468182e+003 1.447247e+003 4.218802e+003
         vertex 1.466264e+003 4.472468e+002 4.217025e+003
         vertex 1.466264e+003 1.447247e+003 4.217025e+003
      endloop
   endfacet
   facet normal 5.664655e-001 0.000000e+000 -8.240855e-001
      outer loop
         vertex 1.466264e+003 1.447247e+003 4.217025e+003
         vertex 1.466264e+003 4.472468e+002 4.217025e+003
         vertex 1.464067e+003 4.472468e+002 4.215607e+003
      endloop
   endfacet
   facet normal 5.174782e-001 0.000000e+000 -8.556964e-001
      outer loop
         vertex 1.466264e+003 1.447247e+003 4.217025e+003
         vertex 1.464067e+003 4.472468e+002 4.215607e+003
         vertex 1.464067e+003 1.447247e+003 4.215607e+003
      endloop
   endfacet
   facet normal 4.147587e-001 0.000000e+000 -9.099314e-001
      outer loop
         vertex 1.464067e+003 1.447247e+003 4.215607e+003
         vertex 1.464067e+003 4.472468e+002 4.215607e+003
         vertex 1.461657e+003 4.472468e+002 4.214592e+003
      endloop
   endfacet
   facet normal 3.610265e-001 0.000000e+000 -9.325556e-001
      outer loop
         vertex 1.464067e+003 1.447247e+003 4.215607e+003
         vertex 1.461657e+003 4.472468e+002 4.214592e+003
         vertex 1.461657e+003 1.447247e+003 4.214592e+003
      endloop
   endfacet
   facet normal 2.504497e-001 0.000000e+000 -9.681296e-001
      outer loop
         vertex 1.461657e+003 1.447247e+003 4.214592e+003
         vertex 1.461657e+003 4.472468e+002 4.214592e+003
         vertex 1.459108e+003 4.472468e+002 4.214012e+003
      endloop
   endfacet
   facet normal 1.936051e-001 0.000000e+000 -9.810795e-001
      outer loop
         vertex 1.461657e+003 1.447247e+003 4.214592e+003
         vertex 1.459108e+003 4.472468e+002 4.214012e+003
         vertex 1.459108e+003 1.447247e+003 4.214012e+003
      endloop
   endfacet
   facet normal 7.853084e-002 0.000000e+000 -9.969117e-001
      outer loop
         vertex 1.459108e+003 1.447247e+003 4.214012e+003
         vertex 1.459108e+003 4.472468e+002 4.214012e+003
         vertex 1.456496e+003 4.472468e+002 4.213882e+003
      endloop
   endfacet
   facet normal 2.030118e-002 0.000000e+000 -9.997939e-001
      outer loop
         vertex 1.459108e+003 1.447247e+003 4.214012e+003
         vertex 1.456496e+003 4.472468e+002 4.213882e+003
         vertex 1.456496e+003 1.447247e+003 4.213882e+003
      endloop
   endfacet
   facet normal -9.577412e-002 0.000000e+000 -9.954031e-001
      outer loop
         vertex 1.456496e+003 1.447247e+003 4.213882e+003
         vertex 1.456496e+003 4.472468e+002 4.213882e+003
         vertex 1.453902e+003 4.472468e+002 4.214208e+003
      endloop
   endfacet
   facet normal -1.536197e-001 0.000000e+000 -9.881300e-001
      outer loop
         vertex 1.456496e+003 1.447247e+003 4.213882e+003
         vertex 1.453902e+003 4.472468e+002 4.214208e+003
         vertex 1.453902e+003 1.447247e+003 4.214208e+003
      endloop
   endfacet
   facet normal -2.671690e-001 0.000000e+000 -9.636497e-001
      outer loop
         vertex 1.453902e+003 1.447247e+003 4.214208e+003
         vertex 1.453902e+003 4.472468e+002 4.214208e+003
         vertex 1.451404e+003 4.472468e+002 4.214980e+003
      endloop
   endfacet
   facet normal 0.000000e+000 1.000000e+000 0.000000e+000
      outer loop
         vertex 1.453902e+003 1.447247e+003 4.214208e+003
         vertex 1.444366e+003 1.447247e+003 4.236857e+003
         vertex 1.445946e+003 1.447247e+003 4.238941e+003
      endloop
   endfacet
   facet normal 0.000000e+000 1.000000e+000 0.000000e+000
      outer loop
         vertex 1.460225e+003 1.447247e+003 4.243535e+003
         vertex 1.462723e+003 1.447247e+003 4.242763e+003
         vertex 1.453902e+003 1.447247e+003 4.214208e+003
      endloop
   endfacet
   facet normal 0.000000e+000 1.000000e+000 0.000000e+000
      outer loop
         vertex 1.453902e+003 1.447247e+003 4.214208e+003
         vertex 1.462723e+003 1.447247e+003 4.242763e+003
         vertex 1.465049e+003 1.447247e+003 4.241569e+003
      endloop
   endfacet
   facet normal 0.000000e+000 1.000000e+000 0.000000e+000
      outer loop
         vertex 1.453902e+003 1.447247e+003 4.214208e+003
         vertex 1.465049e+003 1.447247e+003 4.241569e+003
         vertex 1.467133e+003 1.447247e+003 4.239990e+003
      endloop
   endfacet
   facet normal 0.000000e+000 1.000000e+000 0.000000e+000
      outer loop
         vertex 1.471343e+003 1.447247e+003 4.233465e+003
         vertex 1.471923e+003 1.447247e+003 4.230916e+003
         vertex 1.453902e+003 1.447247e+003 4.214208e+003
      endloop
   endfacet
   facet normal 0.000000e+000 1.000000e+000 0.000000e+000
      outer loop
         vertex 1.453902e+003 1.447247e+003 4.214208e+003
         vertex 1.471923e+003 1.447247e+003 4.230916e+003
         vertex 1.472053e+003 1.447247e+003 4.228304e+003
      endloop
   endfacet
   facet normal 0.000000e+000 1.000000e+000 0.000000e+000
      outer loop
         vertex 1.442400e+003 1.447247e+003 4.232033e+003
         vertex 1.443799e+003 1.447247e+003 4.221868e+003
         vertex 1.442074e+003 1.447247e+003 4.229439e+003
      endloop
   endfacet
   facet normal 0.000000e+000 1.000000e+000 0.000000e+000
      outer loop
         vertex 1.442074e+003 1.447247e+003 4.229439e+003
         vertex 1.443799e+003 1.447247e+003 4.221868e+003
         vertex 1.442784e+003 1.447247e+003 4.224278e+003
      endloop
   endfacet
   facet normal 0.000000e+000 1.000000e+000 0.000000e+000
      outer loop
         vertex 1.442074e+003 1.447247e+003 4.229439e+003
         vertex 1.442784e+003 1.447247e+003 4.224278e+003
         vertex 1.442203e+003 1.447247e+003 4.226827e+003
      endloop
   endfacet
   facet normal 0.000000e+000 1.000000e+000 0.000000e+000
      outer loop
         vertex 1.445946e+003 1.447247e+003 4.238941e+003
         vertex 1.447863e+003 1.447247e+003 4.240718e+003
         vertex 1.453902e+003 1.447247e+003 4.214208e+003
      endloop
   endfacet
   facet normal 0.000000e+000 1.000000e+000 0.000000e+000
      outer loop
         vertex 1.453902e+003 1.447247e+003 4.214208e+003
         vertex 1.447863e+003 1.447247e+003 4.240718e+003
         vertex 1.450060e+003 1.447247e+003 4.242136e+003
      endloop
   endfacet
   facet normal 0.000000e+000 1.000000e+000 0.000000e+000
      outer loop
         vertex 1.453902e+003 1.447247e+003 4.214208e+003
         vertex 1.450060e+003 1.447247e+003 4.242136e+003
         vertex 1.452470e+003 1.447247e+003 4.243151e+003
      endloop
   endfacet
   facet normal 0.000000e+000 1.000000e+000 0.000000e+000
      outer loop
         vertex 1.467133e+003 1.447247e+003 4.239990e+003
         vertex 1.468910e+003 1.447247e+003 4.238072e+003
         vertex 1.453902e+003 1.447247e+003 4.214208e+003
      endloop
   endfacet
   facet normal 0.000000e+000 1.000000e+000 0.000000e+000
      outer loop
         vertex 1.453902e+003 1.447247e+003 4.214208e+003
         vertex 1.468910e+003 1.447247e+003 4.238072e+003
         vertex 1.470328e+003 1.447247e+003 4.235875e+003
      endloop
   endfacet
   facet normal 0.000000e+000 1.000000e+000 0.000000e+000
      outer loop
         vertex 1.453902e+003 1.447247e+003 4.214208e+003
         vertex 1.470328e+003 1.447247e+003 4.235875e+003
         vertex 1.471343e+003 1.447247e+003 4.233465e+003
      endloop
   endfacet
   facet normal 0.000000e+000 1.000000e+000 0.000000e+000
      outer loop
         vertex 1.472053e+003 1.447247e+003 4.228304e+003
         vertex 1.471727e+003 1.447247e+003 4.225710e+003
         vertex 1.453902e+003 1.447247e+003 4.214208e+003
      endloop
   endfacet
   facet normal 0.000000e+000 1.000000e+000 0.000000e+000
      outer loop
         vertex 1.453902e+003 1.447247e+003 4.214208e+003
         vertex 1.471727e+003 1.447247e+003 4.225710e+003
         vertex 1.470955e+003 1.447247e+003 4.223212e+003
      endloop
   endfacet
   facet normal 0.000000e+000 1.000000e+000 0.000000e+000
      outer loop
         vertex 1.453902e+003 1.447247e+003 4.214208e+003
         vertex 1.470955e+003 1.447247e+003 4.223212e+003
         vertex 1.469761e+003 1.447247e+003 4.220886e+003
      endloop
   endfacet
   facet normal 0.000000e+000 1.000000e+000 0.000000e+000
      outer loop
         vertex 1.453902e+003 1.447247e+003 4.214208e+003
         vertex 1.451404e+003 1.447247e+003 4.214980e+003
         vertex 1.444366e+003 1.447247e+003 4.236857e+003
      endloop
   endfacet
   facet normal 0.000000e+000 1.000000e+000 0.000000e+000
      outer loop
         vertex 1.444366e+003 1.447247e+003 4.236857e+003
         vertex 1.451404e+003 1.447247e+003 4.214980e+003
         vertex 1.449078e+003 1.447247e+003 4.216174e+003
      endloop
   endfacet
   facet normal 0.000000e+000 1.000000e+000 0.000000e+000
      outer loop
         vertex 1.444366e+003 1.447247e+003 4.236857e+003
         vertex 1.449078e+003 1.447247e+003 4.216174e+003
         vertex 1.446994e+003 1.447247e+003 4.217753e+003
      endloop
   endfacet
   facet normal 0.000000e+000 1.000000e+000 0.000000e+000
      outer loop
         vertex 1.446994e+003 1.447247e+003 4.217753e+003
         vertex 1.445217e+003 1.447247e+003 4.219671e+003
         vertex 1.444366e+003 1.447247e+003 4.236857e+003
      endloop
   endfacet
   facet normal 0.000000e+000 1.000000e+000 0.000000e+000
      outer loop
         vertex 1.444366e+003 1.447247e+003 4.236857e+003
         vertex 1.445217e+003 1.447247e+003 4.219671e+003
         vertex 1.443799e+003 1.447247e+003 4.221868e+003
      endloop
   endfacet
   facet normal 0.000000e+000 1.000000e+000 0.000000e+000
      outer loop
         vertex 1.444366e+003 1.447247e+003 4.236857e+003
         vertex 1.443799e+003 1.447247e+003 4.221868e+003
         vertex 1.443172e+003 1.447247e+003 4.234531e+003
      endloop
   endfacet
   facet normal 0.000000e+000 1.000000e+000 0.000000e+000
      outer loop
         vertex 1.443172e+003 1.447247e+003 4.234531e+003
         vertex 1.443799e+003 1.447247e+003 4.221868e+003
         vertex 1.442400e+003 1.447247e+003 4.232033e+003
      endloop
   endfacet
   facet normal 0.000000e+000 1.000000e+000 0.000000e+000
      outer loop
         vertex 1.452470e+003 1.447247e+003 4.243151e+003
         vertex 1.455019e+003 1.447247e+003 4.243731e+003
         vertex 1.453902e+003 1.447247e+003 4.214208e+003
      endloop
   endfacet
   facet normal 0.000000e+000 1.000000e+000 0.000000e+000
      outer loop
         vertex 1.453902e+003 1.447247e+003 4.214208e+003
         vertex 1.455019e+003 1.447247e+003 4.243731e+003
         vertex 1.457630e+003 1.447247e+003 4.243861e+003
      endloop
   endfacet
   facet normal 0.000000e+000 1.000000e+000 0.000000e+000
      outer loop
         vertex 1.453902e+003 1.447247e+003 4.214208e+003
         vertex 1.457630e+003 1.447247e+003 4.243861e+003
         vertex 1.460225e+003 1.447247e+003 4.243535e+003
      endloop
   endfacet
   facet normal 0.000000e+000 1.000000e+000 0.000000e+000
      outer loop
         vertex 1.469761e+003 1.447247e+003 4.220886e+003
         vertex 1.468182e+003 1.447247e+003 4.218802e+003
         vertex 1.453902e+003 1.447247e+003 4.214208e+003
      endloop
   endfacet
   facet normal 0.000000e+000 1.000000e+000 0.000000e+000
      outer loop
         vertex 1.453902e+003 1.447247e+003 4.214208e+003
         vertex 1.468182e+003 1.447247e+003 4.218802e+003
         vertex 1.466264e+003 1.447247e+003 4.217025e+003
      endloop
   endfacet
   facet normal 0.000000e+000 1.000000e+000 0.000000e+000
      outer loop
         vertex 1.453902e+003 1.447247e+003 4.214208e+003
         vertex 1.466264e+003 1.447247e+003 4.217025e+003
         vertex 1.464067e+003 1.447247e+003 4.215607e+003
      endloop
   endfacet
   facet normal 0.000000e+000 1.000000e+000 0.000000e+000
      outer loop
         vertex 1.464067e+003 1.447247e+003 4.215607e+003
         vertex 1.461657e+003 1.447247e+003 4.214592e+003
         vertex 1.453902e+003 1.447247e+003 4.214208e+003
      endloop
   endfacet
   facet normal 0.000000e+000 1.000000e+000 0.000000e+000
      outer loop
         vertex 1.453902e+003 1.447247e+003 4.214208e+003
         vertex 1.461657e+003 1.447247e+003 4.214592e+003
         vertex 1.459108e+003 1.447247e+003 4.214012e+003
      endloop
   endfacet
   facet normal 0.000000e+000 1.000000e+000 0.000000e+000
      outer loop
         vertex 1.453902e+003 1.447247e+003 4.214208e+003
         vertex 1.459108e+003 1.447247e+003 4.214012e+003
         vertex 1.456496e+003 1.447247e+003 4.213882e+003
      endloop
   endfacet
   facet normal 0.000000e+000 -1.000000e+000 0.000000e+000
      outer loop
         vertex 1.466264e+003 4.472468e+002 4.217025e+003
         vertex 1.468182e+003 4.472468e+002 4.218802e+003
         vertex 1.447863e+003 4.472468e+002 4.240718e+003
      endloop
   endfacet
   facet normal 0.000000e+000 -1.000000e+000 0.000000e+000
      outer loop
         vertex 1.447863e+003 4.472468e+002 4.240718e+003
         vertex 1.468182e+003 4.472468e+002 4.218802e+003
         vertex 1.469761e+003 4.472468e+002 4.220886e+003
      endloop
   endfacet
   facet normal 0.000000e+000 -1.000000e+000 0.000000e+000
      outer loop
         vertex 1.447863e+003 4.472468e+002 4.240718e+003
         vertex 1.469761e+003 4.472468e+002 4.220886e+003
         vertex 1.470955e+003 4.472468e+002 4.223212e+003
      endloop
   endfacet
   facet normal 0.000000e+000 -1.000000e+000 0.000000e+000
      outer loop
         vertex 1.470955e+003 4.472468e+002 4.223212e+003
         vertex 1.471727e+003 4.472468e+002 4.225710e+003
         vertex 1.447863e+003 4.472468e+002 4.240718e+003
      endloop
   endfacet
   facet normal 0.000000e+000 -1.000000e+000 0.000000e+000
      outer loop
         vertex 1.447863e+003 4.472468e+002 4.240718e+003
         vertex 1.471727e+003 4.472468e+002 4.225710e+003
         vertex 1.472053e+003 4.472468e+002 4.228304e+003
      endloop
   endfacet
   facet normal 0.000000e+000 -1.000000e+000 0.000000e+000
      outer loop
         vertex 1.447863e+003 4.472468e+002 4.240718e+003
         vertex 1.472053e+003 4.472468e+002 4.228304e+003
         vertex 1.471923e+003 4.472468e+002 4.230916e+003
      endloop
   endfacet
   facet normal 0.000000e+000 -1.000000e+000 0.000000e+000
      outer loop
         vertex 1.444366e+003 4.472468e+002 4.236857e+003
         vertex 1.459108e+003 4.472468e+002 4.214012e+003
         vertex 1.461657e+003 4.472468e+002 4.214592e+003
      endloop
   endfacet
   facet normal 0.000000e+000 -1.000000e+000 0.000000e+000
      outer loop
         vertex 1.443172e+003 4.472468e+002 4.234531e+003
         vertex 1.453902e+003 4.472468e+002 4.214208e+003
         vertex 1.444366e+003 4.472468e+002 4.236857e+003
      endloop
   endfacet
   facet normal 0.000000e+000 -1.000000e+000 0.000000e+000
      outer loop
         vertex 1.444366e+003 4.472468e+002 4.236857e+003
         vertex 1.453902e+003 4.472468e+002 4.214208e+003
         vertex 1.456496e+003 4.472468e+002 4.213882e+003
      endloop
   endfacet
   facet normal 0.000000e+000 -1.000000e+000 0.000000e+000
      outer loop
         vertex 1.444366e+003 4.472468e+002 4.236857e+003
         vertex 1.456496e+003 4.472468e+002 4.213882e+003
         vertex 1.459108e+003 4.472468e+002 4.214012e+003
      endloop
   endfacet
   facet normal 0.000000e+000 -1.000000e+000 0.000000e+000
      outer loop
         vertex 1.443172e+003 4.472468e+002 4.234531e+003
         vertex 1.442400e+003 4.472468e+002 4.232033e+003
         vertex 1.453902e+003 4.472468e+002 4.214208e+003
      endloop
   endfacet
   facet normal 0.000000e+000 -1.000000e+000 0.000000e+000
      outer loop
         vertex 1.453902e+003 4.472468e+002 4.214208e+003
         vertex 1.442400e+003 4.472468e+002 4.232033e+003
         vertex 1.442074e+003 4.472468e+002 4.229439e+003
      endloop
   endfacet
   facet normal 0.000000e+000 -1.000000e+000 0.000000e+000
      outer loop
         vertex 1.453902e+003 4.472468e+002 4.214208e+003
         vertex 1.442074e+003 4.472468e+002 4.229439e+003
         vertex 1.442203e+003 4.472468e+002 4.226827e+003
      endloop
   endfacet
   facet normal 0.000000e+000 -1.000000e+000 0.000000e+000
      outer loop
         vertex 1.447863e+003 4.472468e+002 4.240718e+003
         vertex 1.445946e+003 4.472468e+002 4.238941e+003
         vertex 1.466264e+003 4.472468e+002 4.217025e+003
      endloop
   endfacet
   facet normal 0.000000e+000 -1.000000e+000 0.000000e+000
      outer loop
         vertex 1.466264e+003 4.472468e+002 4.217025e+003
         vertex 1.445946e+003 4.472468e+002 4.238941e+003
         vertex 1.444366e+003 4.472468e+002 4.236857e+003
      endloop
   endfacet
   facet normal 0.000000e+000 -1.000000e+000 0.000000e+000
      outer loop
         vertex 1.466264e+003 4.472468e+002 4.217025e+003
         vertex 1.444366e+003 4.472468e+002 4.236857e+003
         vertex 1.464067e+003 4.472468e+002 4.215607e+003
      endloop
   endfacet
   facet normal 0.000000e+000 -1.000000e+000 0.000000e+000
      outer loop
         vertex 1.464067e+003 4.472468e+002 4.215607e+003
         vertex 1.444366e+003 4.472468e+002 4.236857e+003
         vertex 1.461657e+003 4.472468e+002 4.214592e+003
      endloop
   endfacet
   facet normal 0.000000e+000 -1.000000e+000 0.000000e+000
      outer loop
         vertex 1.471923e+003 4.472468e+002 4.230916e+003
         vertex 1.471343e+003 4.472468e+002 4.233465e+003
         vertex 1.447863e+003 4.472468e+002 4.240718e+003
      endloop
   endfacet
   facet normal 0.000000e+000 -1.000000e+000 0.000000e+000
      outer loop
         vertex 1.447863e+003 4.472468e+002 4.240718e+003
         vertex 1.471343e+003 4.472468e+002 4.233465e+003
         vertex 1.470328e+003 4.472468e+002 4.235875e+003
      endloop
   endfacet
   facet normal 0.000000e+000 -1.000000e+000 0.000000e+000
      outer loop
         vertex 1.447863e+003 4.472468e+002 4.240718e+003
         vertex 1.470328e+003 4.472468e+002 4.235875e+003
         vertex 1.468910e+003 4.472468e+002 4.238072e+003
      endloop
   endfacet
   facet normal 0.000000e+000 -1.000000e+000 0.000000e+000
      outer loop
         vertex 1.442203e+003 4.472468e+002 4.226827e+003
         vertex 1.442784e+003 4.472468e+002 4.224278e+003
         vertex 1.453902e+003 4.472468e+002 4.214208e+003
      endloop
   endfacet
   facet normal 0.000000e+000 -1.000000e+000 0.000000e+000
      outer loop
         vertex 1.453902e+003 4.472468e+002 4.214208e+003
         vertex 1.442784e+003 4.472468e+002 4.224278e+003
         vertex 1.443799e+003 4.472468e+002 4.221868e+003
      endloop
   endfacet
   facet normal 0.000000e+000 -1.000000e+000 0.000000e+000
      outer loop
         vertex 1.453902e+003 4.472468e+002 4.214208e+003
         vertex 1.443799e+003 4.472468e+002 4.221868e+003
         vertex 1.445217e+003 4.472468e+002 4.219671e+003
      endloop
   endfacet
   facet normal 0.000000e+000 -1.000000e+000 0.000000e+000
      outer loop
         vertex 1.468910e+003 4.472468e+002 4.238072e+003
         vertex 1.467133e+003 4.472468e+002 4.239990e+003
         vertex 1.447863e+003 4.472468e+002 4.240718e+003
      endloop
   endfacet
   facet normal 0.000000e+000 -1.000000e+000 0.000000e+000
      outer loop
         vertex 1.447863e+003 4.472468e+002 4.240718e+003
         vertex 1.467133e+003 4.472468e+002 4.239990e+003
         vertex 1.465049e+003 4.472468e+002 4.241569e+003
      endloop
   endfacet
   facet normal 0.000000e+000 -1.000000e+000 0.000000e+000
      outer loop
         vertex 1.447863e+003 4.472468e+002 4.240718e+003
         vertex 1.465049e+003 4.472468e+002 4.241569e+003
         vertex 1.462723e+003 4.472468e+002 4.242763e+003
      endloop
   endfacet
   facet normal 0.000000e+000 -1.000000e+000 0.000000e+000
      outer loop
         vertex 1.445217e+003 4.472468e+002 4.219671e+003
         vertex 1.446994e+003 4.472468e+002 4.217753e+003
         vertex 1.453902e+003 4.472468e+002 4.214208e+003
      endloop
   endfacet
   facet normal 0.000000e+000 -1.000000e+000 0.000000e+000
      outer loop
         vertex 1.453902e+003 4.472468e+002 4.214208e+003
         vertex 1.446994e+003 4.472468e+002 4.217753e+003
         vertex 1.449078e+003 4.472468e+002 4.216174e+003
      endloop
   endfacet
   facet normal 0.000000e+000 -1.000000e+000 0.000000e+000
      outer loop
         vertex 1.453902e+003 4.472468e+002 4.214208e+003
         vertex 1.449078e+003 4.472468e+002 4.216174e+003
         vertex 1.451404e+003 4.472468e+002 4.214980e+003
      endloop
   endfacet
   facet normal 0.000000e+000 -1.000000e+000 0.000000e+000
      outer loop
         vertex 1.457630e+003 4.472468e+002 4.243861e+003
         vertex 1.455019e+003 4.472468e+002 4.243731e+003
         vertex 1.452470e+003 4.472468e+002 4.243151e+003
      endloop
   endfacet
   facet normal 0.000000e+000 -1.000000e+000 0.000000e+000
      outer loop
         vertex 1.462723e+003 4.472468e+002 4.242763e+003
         vertex 1.460225e+003 4.472468e+002 4.243535e+003
         vertex 1.447863e+003 4.472468e+002 4.240718e+003
      endloop
   endfacet
   facet normal 0.000000e+000 -1.000000e+000 0.000000e+000
      outer loop
         vertex 1.447863e+003 4.472468e+002 4.240718e+003
         vertex 1.460225e+003 4.472468e+002 4.243535e+003
         vertex 1.457630e+003 4.472468e+002 4.243861e+003
      endloop
   endfacet
   facet normal 0.000000e+000 -1.000000e+000 0.000000e+000
      outer loop
         vertex 1.447863e+003 4.472468e+002 4.240718e+003
         vertex 1.457630e+003 4.472468e+002 4.243861e+003
         vertex 1.450060e+003 4.472468e+002 4.242136e+003
      endloop
   endfacet
   facet normal 0.000000e+000 -1.000000e+000 0.000000e+000
      outer loop
         vertex 1.450060e+003 4.472468e+002 4.242136e+003
         vertex 1.457630e+003 4.472468e+002 4.243861e+003
         vertex 1.452470e+003 4.472468e+002 4.243151e+003
      endloop
   endfacet
endsolid